PathFileType	4	(X/Y/Z)	Patient4_TMGait_0pt5_01_left_37.trc.trc
DataRate	CameraRate	NumFrames	NumMarkers	Units	OrigDataRate	OrigDataStartFrame	OrigNumFrames
75.675675675676	75.675675675676	4	33	mm	75.675675675676	89	       141
Frame#	Time	L.ASIS			Sacral			L.Shoulder			Chest			R.Shoulder			Neck			R.ASIS			R.Thigh.Superior			R.Thigh.Lateral			R.Thigh.Inferior			R.Patella			L.Thigh.Superior			L.Thigh.Lateral			L.Thigh.Inferior			L.Patella			L.Shank.Superior			L.Shank.Lateral			L.Shank.Inferior			R.Shank.Superior			R.Shank.Lateral			R.Shank.Inferior			R.Heel			R.Midfoot.Superior			R.Midfoot.Lateral			R.Toe			L.Heel			L.Midfoot.Lateral			L.Midfoot.Superior			L.Toe			L.Elbow			L.Wrist			R.Elbow			R.Wrist			
		X1	Y1	Z1	X2	Y2	Z2	X3	Y3	Z3	X4	Y4	Z4	X5	Y5	Z5	X6	Y6	Z6	X7	Y7	Z7	X8	Y8	Z8	X9	Y9	Z9	X10	Y10	Z10	X11	Y11	Z11	X12	Y12	Z12	X13	Y13	Z13	X14	Y14	Z14	X15	Y15	Z15	X16	Y16	Z16	X17	Y17	Z17	X18	Y18	Z18	X19	Y19	Z19	X20	Y20	Z20	X21	Y21	Z21	X22	Y22	Z22	X23	Y23	Z23	X24	Y24	Z24	X25	Y25	Z25	X26	Y26	Z26	X27	Y27	Z27	X28	Y28	Z28	X29	Y29	Z29	X30	Y30	Z30	X31	Y31	Z31	X32	Y32	Z32	X33	Y33	Z33	

89	50.442857142857	846.880866209934	959.277576511776	338.603690735309	623.466767295117	1002.442478131723	478.628240499912	808.122943291309	1434.284815601142	316.173342715332	893.356364066790	1363.289922122625	486.722923643556	790.536946123841	1434.835079746493	652.264490144492	792.524702212790	1494.804574431199	467.449540201229	842.316133023402	941.158364855035	613.055091397161	903.442428703360	748.175521105558	583.248596088332	829.988722548336	634.260605401832	640.253847800337	915.288407002206	587.442207272499	563.581781170193	924.702981219889	497.353789062587	570.732090677067	869.705448402363	734.858234869157	362.834049136850	771.888056325779	628.843292229711	295.752965841754	845.026051234019	538.499856954092	357.771070959475	833.207900207053	456.982444291194	358.166212563739	772.730302653323	397.935212617186	351.082039412525	643.497091115025	335.024275046558	295.531321430382	639.933044108658	209.498096322482	359.242827415428	898.207105460223	407.944055594114	578.117245942636	828.250244319060	303.083612898258	638.570618448346	875.288182621353	208.814929781056	579.392150207253	745.715524753403	43.176642969697	546.989827681947	915.079242533356	98.067985473277	589.118317432656	826.248228678072	36.720500758918	625.250477088740	1034.152940588930	46.225788189688	622.305211769185	456.401632454648	112.287736233236	387.735390774439	528.892527423837	75.783039578531	316.670684862401	626.136610791102	108.730268990822	344.510423719207	727.411903716921	34.553958687082	334.378355346767	837.040162413767	1086.896895190231	183.564448169052	1071.846711956156	975.525204264276	186.907092196090	699.403437187293	1094.062997727936	749.010485019720	767.963875824154	841.684479052631	754.545166450972	
90	50.456071428571	845.587097402023	959.638361116007	340.917523102223	623.184489979802	1002.540719294720	482.968460644726	805.342247965758	1434.932386577092	319.281008019376	892.554583937002	1363.804200083371	488.833219223118	791.345557798314	1434.904380101433	655.584940873785	791.124809218973	1495.127660324044	470.879902030951	843.284059296131	941.576416242439	615.289558456146	902.637336221689	747.332115619493	586.405180352819	827.832356843345	634.109076511172	642.797554222073	912.882612828800	586.701654173801	566.184537935590	921.237647305299	496.623391235956	572.825712217867	873.446192427282	736.709788693888	365.004093817801	779.528317280325	628.330591555765	297.540220154264	856.091244264648	539.433164115015	358.703247504550	845.341332794578	456.499690636676	358.122912807762	782.459607812472	397.749965770466	351.522810473187	650.645602116000	339.911125103943	296.500676951042	643.301678019846	214.166364315707	359.207207690334	894.234327970087	407.328538543800	579.881258345318	823.666703854571	302.704567660065	639.886982527959	869.879492225770	208.357123386699	580.221197268765	739.223043296826	43.240293220098	547.146003696598	908.756262945631	97.936452953053	589.455527936554	819.717791677446	36.673804577755	625.442273601734	1027.754983948938	45.580701853462	622.518754538712	456.275999320025	126.040188598196	387.527326585237	526.521884934363	85.309678785579	316.560973184856	625.427957009314	112.597480953623	344.236280705520	721.157778650984	33.611226496691	334.562807660401	830.603549095298	1086.452845986350	188.090900622073	1061.447122092298	966.348844034654	190.430751417476	707.242931296367	1092.295352845271	753.880802009852	788.486845810359	843.761398951546	757.749485791532	
91	50.469285714286	844.131181665808	959.751291218873	343.157851758569	622.767063139838	1002.543894905587	487.276374554539	802.376805872309	1435.380813743863	322.220828507452	891.696390953783	1364.159571686190	490.712852661116	792.228145133547	1434.835946688231	658.712829667373	789.662097857386	1495.305128020839	474.133208415367	844.112746431831	941.862838143215	617.464675971101	901.663873980108	746.441574764195	589.572184096895	825.589028848031	633.911846378749	645.385230211543	910.372410662008	585.931012360368	568.832195713949	917.669263521111	495.868527962099	575.043407864794	877.238085014184	738.740521679178	367.214818443894	787.532472053981	628.032585811729	299.189152538416	867.373998170228	540.807327240041	359.685775829168	857.802058846404	456.538499020839	358.264383864601	792.752331608914	397.957336455243	352.044092754372	658.621749989597	345.157285184759	297.464569320405	647.427387845180	219.417036802794	359.346132548288	890.163358296430	406.674567627506	581.736308337734	818.973429167211	302.275745703597	641.251791977882	864.404569465740	207.870423880994	581.119018110539	732.682303172394	43.289416957702	547.326838300199	902.387696645594	97.794864017595	589.835506511634	813.141657349997	36.612125015255	625.655887422096	1021.307313036599	44.931784781028	622.735175984265	457.258413517896	140.671158159571	387.511396150933	525.061366065171	95.885544770088	316.558307288078	625.423584076503	117.257145034619	344.144992858455	715.355835370793	32.657300775242	334.644975929481	823.928527994392	1085.806517665598	192.510602338896	1050.147956550230	956.562896681882	193.806381612882	715.427272271600	1090.653276919012	758.860428266343	809.365242908444	846.695036827941	760.912061394338	
92	50.482500000000	842.487456364487	959.664704511687	345.297813328378	622.211906138077	1002.480341238782	491.514597932297	799.281857709535	1435.663460770433	324.983881612927	890.786877789273	1364.373220119842	492.362562399111	793.168858090151	1434.659807418253	661.621569943973	788.182760441858	1495.375429922343	477.190553530880	844.774247439387	942.056902760609	619.569977441723	900.519443393135	745.557529978569	592.633374412722	823.287024912297	633.693988485512	647.938333404530	907.757715682491	585.158943588802	571.419008999418	914.002472440994	495.110954948172	577.271054300338	880.958312377214	741.004845635239	369.446081413345	795.688870549274	628.066797419310	300.698905892598	878.617397127190	542.714788990230	360.713559049318	870.369822186106	457.198143607576	358.573391347191	803.413955257387	398.643576752215	352.632256678814	667.241464106861	350.698944714053	298.439083759928	652.267864740603	225.141711372496	359.664807730623	886.003995611229	406.008381594670	583.594179946824	814.194597759115	301.833400193811	642.618798902276	858.876499407757	207.380309118765	582.040515488970	726.103421699074	43.331144710734	547.533492403060	895.980187311971	97.656116922676	590.245661550191	806.531703435787	36.545646947773	625.889034653961	1014.817422109902	44.311841122266	622.954851034925	459.398648204723	155.675290728578	387.770856637877	524.651085496829	107.169793566071	316.706103998109	626.231689421119	122.626257188705	344.223157178547	710.335188357448	31.802834496435	334.548914213974	817.038099125861	1084.996614608232	196.824916470362	1037.900707465494	946.259007749409	197.045531664931	724.002559744587	1089.160926011025	763.874934165421	830.500756508640	850.500771903874	763.953074645007	
